<?xml version="1.0" encoding="UTF-8" standalone="no"?>
<!DOCTYPE svg PUBLIC "-//W3C//DTD SVG 1.1//EN" "http://www.w3.org/Graphics/SVG/1.1/DTD/svg11.dtd">
<svg width="100%" height="100%" viewBox="0 0 923 294" version="1.1" xmlns="http://www.w3.org/2000/svg" xmlns:xlink="http://www.w3.org/1999/xlink" xml:space="preserve" xmlns:serif="http://www.serif.com/" style="fill-rule:evenodd;clip-rule:evenodd;stroke-linejoin:round;stroke-miterlimit:2;">
    <g transform="matrix(1,0,0,1,-21456,-51840)">
        <g id="White-on-transparent" serif:id="White on transparent" transform="matrix(0.306179,0,0,0.106453,19133.6,51840.1)">
            <rect x="7587.95" y="0" width="3010.73" height="2756.39" style="fill:none;"/>
            <g transform="matrix(17.6871,0,0,28.9794,-31497.2,-11431.2)">
                <g transform="matrix(0.0137947,0.00639143,-0.00364095,0.0242156,2252.63,-344.212)">
                    <circle cx="11190.7" cy="29046.7" r="220.503" style="fill:white;"/>
                </g>
                <g transform="matrix(0.0227702,-3.27991e-05,1.86843e-05,0.0399716,2058.69,-729.496)">
                    <circle cx="11190.7" cy="29046.7" r="220.503" style="fill:white;"/>
                </g>
                <g transform="matrix(0.0137947,0.00639143,-0.00364095,0.0242156,2265.44,-363.197)">
                    <circle cx="11190.7" cy="29046.7" r="220.503" style="fill:white;"/>
                </g>
                <g transform="matrix(0.0137947,0.00639143,-0.00364095,0.0242156,2278.24,-344.212)">
                    <circle cx="11190.7" cy="29046.7" r="220.503" style="fill:white;"/>
                </g>
                <g transform="matrix(0.218034,0,0,0.382744,-1436.08,-15096.3)">
                    <path d="M16911.5,40600.5C16911.5,40598.6 16912.3,40596.7 16913.6,40595.4C16915,40594 16916.8,40593.3 16918.7,40593.3C16918.7,40593.3 16918.7,40593.3 16918.7,40593.3C16920.6,40593.3 16922.5,40594 16923.8,40595.4C16925.2,40596.7 16925.9,40598.6 16925.9,40600.5C16925.9,40618 16925.9,40661.3 16925.9,40661.3C16925.9,40667.5 16924.7,40672.8 16922.3,40677.1C16919.9,40681.5 16916.5,40684.8 16912.1,40687.1C16907.7,40689.4 16902.6,40690.6 16896.7,40690.6C16891.3,40690.6 16886.5,40689.6 16882.2,40687.6C16877.9,40685.7 16874.5,40682.8 16872,40679C16871,40677.4 16870.1,40675.7 16869.5,40673.8C16868.9,40671.9 16869.2,40669.7 16870.4,40668C16871.7,40666.3 16873.6,40665.3 16875.7,40665.3C16875.7,40665.3 16875.7,40665.3 16875.7,40665.3C16879.2,40665.3 16882.3,40667.4 16883.7,40670.6C16883.9,40671.1 16884.2,40671.7 16884.5,40672.2C16885.8,40674.1 16887.5,40675.6 16889.6,40676.7C16891.8,40677.8 16894.3,40678.3 16897.1,40678.3C16900.2,40678.3 16902.8,40677.7 16904.9,40676.4C16907.1,40675.1 16908.7,40673.1 16909.8,40670.6C16910.9,40668.1 16911.5,40665 16911.5,40661.3C16911.5,40661.3 16911.5,40618 16911.5,40600.5Z" style="fill:white;fill-rule:nonzero;"/>
                    <path d="M16976.2,40690.7C16969.5,40690.7 16963.6,40689.2 16958.6,40686.1C16953.5,40683 16949.6,40678.7 16946.8,40673.1C16944.1,40667.5 16942.7,40661 16942.7,40653.6C16942.7,40646.1 16944.1,40639.6 16946.8,40634C16949.6,40628.4 16953.5,40624.1 16958.6,40621C16963.6,40617.9 16969.5,40616.3 16976.2,40616.3C16983,40616.3 16988.9,40617.9 16993.9,40621C16998.9,40624.1 17002.8,40628.4 17005.6,40634C17008.4,40639.6 17009.8,40646.1 17009.8,40653.6C17009.8,40661 17008.4,40667.5 17005.6,40673.1C17002.8,40678.7 16998.9,40683 16993.9,40686.1C16988.9,40689.2 16983,40690.7 16976.2,40690.7ZM16976.3,40679C16980.7,40679 16984.3,40677.8 16987.2,40675.5C16990,40673.2 16992.2,40670.1 16993.6,40666.3C16994.9,40662.4 16995.6,40658.2 16995.6,40653.6C16995.6,40649 16994.9,40644.7 16993.6,40640.9C16992.2,40637 16990,40633.9 16987.2,40631.6C16984.3,40629.2 16980.7,40628.1 16976.3,40628.1C16971.9,40628.1 16968.2,40629.2 16965.3,40631.6C16962.4,40633.9 16960.3,40637 16958.9,40640.9C16957.5,40644.7 16956.8,40649 16956.8,40653.6C16956.8,40658.2 16957.5,40662.4 16958.9,40666.3C16960.3,40670.1 16962.4,40673.2 16965.3,40675.5C16968.2,40677.8 16971.9,40679 16976.3,40679Z" style="fill:white;fill-rule:nonzero;"/>
                    <path d="M17036,40689.3C17033.5,40689.3 17031.1,40688.3 17029.3,40686.5C17027.5,40684.7 17026.5,40682.3 17026.5,40679.8C17026.5,40660.5 17026.5,40617.2 17026.5,40600.3C17026.5,40598.4 17027.3,40596.6 17028.6,40595.3C17029.9,40594 17031.7,40593.3 17033.5,40593.3L17033.5,40593.3C17035.4,40593.3 17037.2,40594 17038.5,40595.3C17039.8,40596.6 17040.5,40598.4 17040.5,40600.3C17040.5,40610.7 17040.5,40628.9 17040.5,40628.9L17041.4,40628.9C17042.2,40627.4 17043.4,40625.7 17044.9,40623.7C17046.4,40621.8 17048.6,40620 17051.3,40618.6C17054,40617.1 17057.6,40616.3 17062.1,40616.3C17067.9,40616.3 17073.1,40617.8 17077.6,40620.7C17082.2,40623.7 17085.8,40627.9 17088.4,40633.4C17091,40639 17092.3,40645.6 17092.3,40653.4C17092.3,40661.2 17091,40667.9 17088.4,40673.4C17085.8,40679 17082.2,40683.2 17077.7,40686.2C17073.2,40689.2 17068,40690.7 17062.2,40690.7C17057.8,40690.7 17054.3,40689.9 17051.5,40688.5C17048.7,40687 17046.6,40685.3 17045,40683.3C17043.4,40681.4 17042.2,40679.6 17041.4,40678.1L17040.2,40678.1L17040.2,40685.1C17040.2,40687.4 17038.3,40689.3 17036,40689.3C17036,40689.3 17036,40689.3 17036,40689.3ZM17040.3,40653.3C17040.3,40658.3 17041,40662.8 17042.5,40666.6C17043.9,40670.4 17046.1,40673.4 17048.8,40675.5C17051.6,40677.7 17055,40678.7 17059.1,40678.7C17063.2,40678.7 17066.7,40677.6 17069.6,40675.4C17072.4,40673.1 17074.5,40670.1 17076,40666.3C17077.4,40662.4 17078.1,40658.1 17078.1,40653.3C17078.1,40648.5 17077.4,40644.3 17076,40640.5C17074.6,40636.7 17072.5,40633.7 17069.6,40631.5C17066.8,40629.3 17063.3,40628.2 17059.1,40628.2C17055,40628.2 17051.6,40629.3 17048.8,40631.4C17046,40633.5 17043.9,40636.4 17042.4,40640.1C17041,40643.9 17040.3,40648.3 17040.3,40653.3Z" style="fill:white;fill-rule:nonzero;"/>
                    <path d="M17171.2,40618.5C17166.3,40618.5 17161.9,40616.1 17159.2,40612.1C17158.2,40610.6 17156.9,40609.3 17155.3,40608.2C17151.7,40605.7 17147.1,40604.5 17141.6,40604.5C17137.7,40604.5 17134.3,40605.1 17131.4,40606.3C17128.5,40607.6 17126.3,40609.2 17124.7,40611.4C17123.1,40613.5 17122.3,40616 17122.3,40618.7C17122.3,40621 17122.9,40622.9 17124,40624.6C17125,40626.2 17126.5,40627.6 17128.2,40628.7C17130,40629.8 17131.9,40630.8 17133.9,40631.5C17136,40632.2 17137.9,40632.8 17139.8,40633.3L17149.2,40635.7C17152.2,40636.5 17155.4,40637.5 17158.6,40638.8C17161.8,40640.1 17164.8,40641.8 17167.5,40643.9C17170.3,40645.9 17172.5,40648.5 17174.2,40651.6C17175.9,40654.7 17176.8,40658.4 17176.8,40662.7C17176.8,40668.2 17175.4,40673 17172.6,40677.2C17169.8,40681.4 17165.7,40684.8 17160.4,40687.2C17155.1,40689.6 17148.7,40690.9 17141.2,40690.9C17134,40690.9 17127.8,40689.7 17122.6,40687.4C17117.3,40685.2 17113.2,40681.9 17110.2,40677.7C17108.2,40674.9 17106.8,40671.6 17106,40668C17105.8,40666.8 17106.1,40665.4 17106.9,40664.4C17107.7,40663.4 17108.9,40662.8 17110.2,40662.8C17110.2,40662.7 17110.2,40662.7 17110.2,40662.7C17115,40662.7 17119.5,40665.3 17121.9,40669.4C17122.3,40670.1 17122.7,40670.8 17123.3,40671.4C17125.2,40673.7 17127.8,40675.4 17130.9,40676.5C17134,40677.6 17137.4,40678.2 17141.1,40678.2C17145.2,40678.2 17148.9,40677.5 17152.1,40676.2C17155.3,40674.9 17157.8,40673.1 17159.7,40670.8C17161.5,40668.5 17162.4,40665.7 17162.4,40662.6C17162.4,40659.8 17161.6,40657.4 17160,40655.6C17158.4,40653.8 17156.2,40652.3 17153.5,40651.1C17150.8,40649.9 17147.7,40648.9 17144.2,40648L17132.9,40644.9C17125.2,40642.8 17119.1,40639.7 17114.6,40635.6C17110.1,40631.6 17107.9,40626.2 17107.9,40619.5C17107.9,40614 17109.4,40609.2 17112.4,40605C17115.4,40600.9 17119.5,40597.7 17124.6,40595.4C17129.7,40593.1 17135.5,40592 17141.9,40592C17148.4,40592 17154.2,40593.1 17159.2,40595.4C17164.1,40597.7 17168.1,40600.8 17171,40604.8C17172.9,40607.5 17174.3,40610.5 17174.9,40613.8C17175.2,40615 17174.9,40616.1 17174.1,40617C17173.4,40617.9 17172.3,40618.4 17171.2,40618.4C17171.2,40618.5 17171.2,40618.5 17171.2,40618.5Z" style="fill:white;fill-rule:nonzero;"/>
                    <path d="M17238.7,40664.9L17238.6,40647.7L17241,40647.7C17241,40647.7 17259.3,40628.3 17266.7,40620.5C17268.6,40618.4 17271.3,40617.3 17274.1,40617.3C17274.1,40617.3 17274.1,40617.3 17274.1,40617.3C17276.3,40617.3 17278.2,40618.5 17279,40620.5C17279.9,40622.5 17279.5,40624.7 17278,40626.3C17268.3,40636.6 17253.8,40652 17253.8,40652L17251.6,40652L17238.7,40664.9ZM17232.8,40689.3C17230.9,40689.3 17229.2,40688.5 17227.8,40687.2C17226.5,40685.9 17225.8,40684.1 17225.8,40682.3L17225.8,40600.3C17225.8,40598.4 17226.5,40596.6 17227.8,40595.3C17229.2,40594 17230.9,40593.3 17232.8,40593.3L17232.8,40593.3C17234.7,40593.3 17236.4,40594 17237.8,40595.3C17239.1,40596.6 17239.8,40598.4 17239.8,40600.3L17239.8,40682.3C17239.8,40684.1 17239.1,40685.9 17237.8,40687.2C17236.4,40688.5 17234.7,40689.3 17232.8,40689.3L17232.8,40689.3ZM17276.6,40689.3C17273.3,40689.3 17270.1,40687.7 17268,40685C17261.1,40675.8 17245.5,40655.1 17245.5,40655.1L17255.1,40645.3C17255.1,40645.3 17271.5,40666.9 17281.3,40679.8C17282.7,40681.6 17282.9,40684 17281.9,40686C17280.9,40688 17278.9,40689.3 17276.6,40689.3C17276.6,40689.3 17276.6,40689.3 17276.6,40689.3Z" style="fill:white;fill-rule:nonzero;"/>
                    <path d="M17320.2,40690.9C17315.6,40690.9 17311.5,40690 17307.8,40688.3C17304.1,40686.6 17301.2,40684.1 17299.1,40680.9C17296.9,40677.6 17295.9,40673.6 17295.9,40668.9C17295.9,40664.9 17296.7,40661.5 17298.2,40658.9C17299.8,40656.3 17301.9,40654.2 17304.5,40652.7C17307.2,40651.1 17310.2,40650 17313.5,40649.2C17316.7,40648.4 17320.1,40647.8 17323.5,40647.4C17327.8,40646.9 17331.3,40646.5 17334,40646.2C17336.7,40645.8 17338.6,40645.3 17339.8,40644.6C17341.1,40643.8 17341.7,40642.6 17341.7,40640.9L17341.7,40640.6C17341.7,40636.5 17340.5,40633.3 17338.2,40631.1C17335.9,40628.8 17332.5,40627.7 17328,40627.7C17323.3,40627.7 17319.6,40628.7 17316.9,40630.8C17316.2,40631.3 17315.6,40631.8 17315,40632.4C17311.8,40635.5 17307.2,40636.8 17302.8,40635.8C17302.8,40635.8 17302.8,40635.8 17302.8,40635.8C17301.5,40635.5 17300.5,40634.7 17300,40633.5C17299.5,40632.3 17299.6,40631 17300.2,40629.9C17301.5,40627.7 17303.1,40625.7 17304.9,40624.1C17308,40621.4 17311.4,40619.4 17315.4,40618.2C17319.3,40617 17323.5,40616.3 17327.8,40616.3C17330.7,40616.3 17333.7,40616.7 17337,40617.3C17340.2,40618 17343.2,40619.2 17346.1,40621C17348.9,40622.8 17351.2,40625.3 17353,40628.6C17354.8,40631.9 17355.7,40636.2 17355.7,40641.5C17355.7,40641.5 17355.7,40665 17355.7,40679C17355.7,40684.7 17351.2,40689.3 17345.5,40689.3C17345.5,40689.3 17345.5,40689.3 17345.5,40689.3C17343.6,40689.3 17342,40687.7 17342,40685.8C17342,40683 17342,40679.4 17342,40679.4L17341.5,40679.4C17340.6,40681.2 17339.2,40683 17337.4,40684.8C17335.6,40686.5 17333.3,40688 17330.4,40689.1C17327.6,40690.3 17324.2,40690.9 17320.2,40690.9ZM17323.2,40679.6C17327.1,40679.6 17330.4,40678.9 17333.2,40677.3C17336,40675.8 17338.1,40673.8 17339.5,40671.3C17341,40668.8 17341.7,40666.1 17341.7,40663.3L17341.7,40654C17341.2,40654.5 17340.3,40655 17338.8,40655.4C17337.4,40655.8 17335.8,40656.2 17334,40656.5C17332.2,40656.8 17330.4,40657 17328.7,40657.3C17327,40657.5 17325.5,40657.7 17324.4,40657.9C17321.7,40658.2 17319.2,40658.8 17316.9,40659.6C17314.7,40660.4 17312.9,40661.6 17311.6,40663.1C17310.3,40664.6 17309.6,40666.6 17309.6,40669.1C17309.6,40672.6 17310.9,40675.2 17313.5,40677C17316,40678.7 17319.3,40679.6 17323.2,40679.6Z" style="fill:white;fill-rule:nonzero;"/>
                </g>
                <g transform="matrix(0.0136939,-1.97252e-05,1.62279e-05,0.0347166,2151.93,-583.829)">
                    <path d="M11914.1,29882.7C11914.1,29862.4 11902.4,29842.8 11881.6,29828.4C11860.8,29814.1 11832.7,29806 11803.3,29806C11803.2,29806 11803.2,29806 11803.2,29806C11773.8,29806 11745.6,29814.1 11724.9,29828.4C11704.1,29842.8 11692.4,29862.4 11692.4,29882.7C11692.4,30029.2 11692.4,30347.2 11692.4,30493.7C11692.4,30514.1 11704.1,30533.6 11724.9,30548C11745.6,30562.4 11773.8,30570.5 11803.2,30570.5C11803.2,30570.5 11803.2,30570.5 11803.3,30570.5C11832.7,30570.5 11860.8,30562.4 11881.6,30548C11902.4,30533.6 11914.1,30514.1 11914.1,30493.7C11914.1,30347.2 11914.1,30029.2 11914.1,29882.7Z" style="fill:white;"/>
                </g>
            </g>
        </g>
    </g>
</svg>
